<svg width="61" height="64" viewBox="0 0 61 64" fill="none" xmlns="http://www.w3.org/2000/svg">
<g clip-path="url(#clip0_3_20)">
<path d="M17.2826 26.3888L18.492 26.9888C19.0451 27.27 19.6545 27.4107 20.2826 27.4107C22.4857 27.4107 24.2763 25.62 24.2763 23.4169V21.4107C24.2763 18.1013 21.5857 15.4107 18.2763 15.4107H12.2763C8.96697 15.4107 6.27634 18.1013 6.27634 21.4107V23.4169C6.27634 25.62 8.06697 27.4107 10.2701 27.4107C10.8888 27.4107 11.4982 27.27 12.0607 26.9888L13.2701 26.3888L14.0576 25.995L12.9326 25.2544C12.5107 24.9732 12.267 24.5044 12.267 24.0075V23.6607C12.267 22.4138 13.2701 21.4107 14.517 21.4107H16.017C17.2638 21.4107 18.267 22.4138 18.267 23.6607V24.0075C18.267 24.5044 18.0138 24.9732 17.6013 25.2544L16.4951 25.995L17.2826 26.3888ZM16.4763 31.02L15.267 30.4107L14.0576 31.0107C12.8763 31.6013 11.5732 31.9107 10.2607 31.9107C9.92322 31.9107 9.59509 31.8919 9.26697 31.8544V31.9107C9.26697 35.22 11.9576 37.9107 15.267 37.9107H21.267C22.9263 37.9107 24.267 39.2513 24.267 40.9107C24.267 42.57 22.9263 43.9107 21.267 43.9107H36.267V36.4107C36.267 34.1888 37.4763 33.7482 39.267 32.7169C40.1482 32.2107 41.1701 31.9107 42.267 31.9107V30.4107C42.267 27.9263 44.2826 25.9107 46.767 25.9107C47.592 25.9107 48.267 26.5857 48.267 27.4107V36.4107C47.442 36.4107 48.267 37.2357 48.267 36.4107C49.092 36.4107 51.267 36.7483 51.267 35.9233V27.0638C51.267 22.545 48.3795 18.5325 44.0857 17.0982L43.2888 16.8357C42.5388 16.5825 42.1076 15.795 42.3138 15.0263C42.5201 14.2575 43.2795 13.7888 44.0576 13.9388L45.9232 14.3138C54.267 15.9825 60.267 23.3044 60.267 31.8075V31.9107C60.267 43.5075 47.8638 43.9107 36.267 43.9107H21.267C9.69822 43.9107 3.26697 43.5357 3.26697 31.9669V28.2357C2.32009 26.8669 1.76697 25.2075 1.76697 23.4169V21.2794C0.895093 20.97 0.266968 20.145 0.266968 19.1607C0.266968 17.9138 1.27009 16.9107 2.51697 16.9107H2.77947C4.46697 13.3669 8.07634 10.9107 12.267 10.9107H18.267C22.4576 10.9107 26.067 13.3669 27.7545 16.9107H28.017C29.2638 16.9107 30.267 17.9138 30.267 19.1607C30.267 20.145 29.6388 20.97 28.767 21.2794V23.4169C28.767 23.5482 28.767 23.6794 28.7576 23.82C29.8826 23.2388 31.167 22.92 32.517 22.92H33.267C34.9263 22.92 36.267 24.2607 36.267 25.92C36.267 27.5794 34.9263 28.92 33.267 28.92H32.517C31.2701 28.92 30.267 29.9232 30.267 31.17V31.92L39.267 32.7169C37.842 34.3107 36.267 34.1044 36.267 36.4107C32.3013 36.4107 22.9357 35.3513 21.7357 31.7982C21.2576 31.8825 20.7701 31.92 20.2732 31.92C18.9513 31.92 17.6576 31.6107 16.4763 31.02ZM9.26697 19.9107C9.66479 19.9107 10.0463 20.0687 10.3276 20.35C10.6089 20.6313 10.767 21.0128 10.767 21.4107C10.767 21.8085 10.6089 22.19 10.3276 22.4713C10.0463 22.7526 9.66479 22.9107 9.26697 22.9107C8.86914 22.9107 8.48761 22.7526 8.20631 22.4713C7.925 22.19 7.76697 21.8085 7.76697 21.4107C7.76697 21.0128 7.925 20.6313 8.20631 20.35C8.48761 20.0687 8.86914 19.9107 9.26697 19.9107ZM19.767 21.4107C19.767 21.0128 19.925 20.6313 20.2063 20.35C20.4876 20.0687 20.8691 19.9107 21.267 19.9107C21.6648 19.9107 22.0463 20.0687 22.3276 20.35C22.6089 20.6313 22.767 21.0128 22.767 21.4107C22.767 21.8085 22.6089 22.19 22.3276 22.4713C22.0463 22.7526 21.6648 22.9107 21.267 22.9107C20.8691 22.9107 20.4876 22.7526 20.2063 22.4713C19.925 22.19 19.767 21.8085 19.767 21.4107Z" fill="black"/>
<path fill-rule="evenodd" clip-rule="evenodd" d="M17.2826 26.3888L18.492 26.9888C19.0451 27.27 19.6545 27.4107 20.2826 27.4107C22.4857 27.4107 24.2763 25.62 24.2763 23.4169V21.4107C24.2763 18.1013 21.5857 15.4107 18.2763 15.4107H12.2763C8.96697 15.4107 6.27634 18.1013 6.27634 21.4107V23.4169C6.27634 25.62 8.06697 27.4107 10.2701 27.4107C10.8888 27.4107 11.4982 27.27 12.0607 26.9888L13.2701 26.3888L14.0576 25.995L12.9326 25.2544C12.5107 24.9732 12.267 24.5044 12.267 24.0075V23.6607C12.267 22.4138 13.2701 21.4107 14.517 21.4107H16.017C17.2638 21.4107 18.267 22.4138 18.267 23.6607V24.0075C18.267 24.5044 18.0138 24.9732 17.6013 25.2544L16.4951 25.995L17.2826 26.3888ZM10.3276 20.35C10.0463 20.0687 9.66479 19.9107 9.26697 19.9107C8.86914 19.9107 8.48761 20.0687 8.20631 20.35C7.925 20.6313 7.76697 21.0128 7.76697 21.4107C7.76697 21.8085 7.925 22.19 8.20631 22.4713C8.48761 22.7526 8.86914 22.9107 9.26697 22.9107C9.66479 22.9107 10.0463 22.7526 10.3276 22.4713C10.6089 22.19 10.767 21.8085 10.767 21.4107C10.767 21.0128 10.6089 20.6313 10.3276 20.35ZM20.2063 20.35C19.925 20.6313 19.767 21.0128 19.767 21.4107C19.767 21.8085 19.925 22.19 20.2063 22.4713C20.4876 22.7526 20.8691 22.9107 21.267 22.9107C21.6648 22.9107 22.0463 22.7526 22.3276 22.4713C22.6089 22.19 22.767 21.8085 22.767 21.4107C22.767 21.0128 22.6089 20.6313 22.3276 20.35C22.0463 20.0687 21.6648 19.9107 21.267 19.9107C20.8691 19.9107 20.4876 20.0687 20.2063 20.35Z" fill="#FFD8B1"/>
<path fill-rule="evenodd" clip-rule="evenodd" d="M9.66054 43.9122C10.297 43.9089 10.9205 44.0548 11.4531 44.3317C11.9857 44.6086 12.4037 45.0041 12.6549 45.4688C13.233 46.5488 14.2297 47.4505 15.4939 48.0539C17.9618 49.2333 21.983 49.2333 24.4552 48.0539C25.7193 47.4501 26.7124 46.5457 27.2942 45.4688C27.5441 45.0069 27.9589 44.6135 28.4873 44.337C29.0156 44.0605 29.6343 43.9131 30.267 43.9131C30.8996 43.9131 31.5183 44.0605 32.0467 44.337C32.575 44.6135 32.9898 45.0069 33.2397 45.4688C33.8222 46.5488 34.8145 47.4505 36.0787 48.0539C38.551 49.2333 42.5721 49.2333 45.0401 48.0539C46.3043 47.4505 47.3009 46.5453 47.8791 45.4688C48.1299 45.004 48.5475 44.6083 49.0799 44.3311C49.6122 44.054 50.2355 43.9078 50.8719 43.9107C51.5083 43.9136 52.1294 44.0656 52.6577 44.3476C53.1859 44.6296 53.5978 45.0291 53.8418 45.4962C54.2115 46.1969 54.772 46.8238 55.4829 47.3319C56.1939 47.8399 57.0377 48.2165 57.9536 48.4345C58.361 48.5308 58.7405 48.69 59.0705 48.9029C59.4005 49.1158 59.6744 49.3783 59.8768 49.6753C60.0791 49.9724 60.2058 50.2982 60.2497 50.6341C60.2936 50.9701 60.2537 51.3096 60.1325 51.6333C60.0112 51.9571 59.8109 52.2587 59.543 52.5209C59.2751 52.7831 58.9448 53.0008 58.571 53.1616C58.1972 53.3223 57.7872 53.423 57.3644 53.4579C56.9416 53.4928 56.5144 53.4611 56.107 53.3648C54.1396 52.8991 52.3398 52.0682 50.8561 50.9408C50.1085 51.5264 49.274 52.0376 48.3709 52.4631C43.8536 54.6196 37.2695 54.6196 32.7522 52.4631C31.8491 52.0376 31.0146 51.5264 30.267 50.9408C29.5193 51.5264 28.6848 52.0376 27.7818 52.4631C23.2644 54.6196 16.6804 54.6196 12.163 52.4631C11.26 52.0376 10.4254 51.5264 9.6778 50.9408C8.19418 52.0682 6.39437 52.8991 4.42696 53.3648C4.01958 53.4611 3.5923 53.4928 3.16952 53.4579C2.74675 53.423 2.33676 53.3223 1.96295 53.1616C1.58915 53.0008 1.25886 52.7831 0.990938 52.5209C0.723016 52.2587 0.522711 51.9571 0.401459 51.6333C0.280207 51.3096 0.240382 50.9701 0.284259 50.6341C0.328136 50.2982 0.454855 49.9724 0.657181 49.6753C0.859507 49.3783 1.13348 49.1158 1.46345 48.9029C1.79342 48.69 2.17294 48.5308 2.58032 48.4345C3.49627 48.2165 4.34006 47.8399 5.05102 47.3319C5.76198 46.8238 6.32244 46.1969 6.69211 45.4962C6.9363 45.0296 7.34807 44.6305 7.87601 44.3488C8.40394 44.0671 9.02463 43.9152 9.66054 43.9122Z" fill="#2859C5"/>
</g>
<defs>
<clipPath id="clip0_3_20">
<rect width="60" height="48" fill="white" transform="translate(0.266968 7.91065)"/>
</clipPath>
</defs>
</svg>
